<svg width="1769" height="597" viewBox="0 0 1769 597" fill="none" xmlns="http://www.w3.org/2000/svg">
<path d="M30.1099 596.172C24.6871 596.172 19.8277 595.291 15.5317 593.531C11.2358 591.77 7.78488 589.164 5.17912 585.713C2.64378 582.262 1.30569 578.107 1.16484 573.248H20.3911C20.6728 575.994 21.6236 578.107 23.2434 579.586C24.8632 580.995 26.976 581.699 29.5817 581.699C32.2579 581.699 34.3707 581.1 35.9201 579.903C37.4694 578.635 38.2441 576.91 38.2441 574.727C38.2441 572.896 37.6103 571.382 36.3426 570.184C35.1454 568.987 33.6312 568.001 31.8001 567.226C30.0395 566.452 27.5042 565.571 24.1941 564.585C19.4052 563.106 15.4965 561.628 12.4682 560.149C9.43989 558.67 6.83413 556.486 4.65093 553.599C2.46772 550.711 1.37612 546.944 1.37612 542.296C1.37612 535.394 3.87624 530.006 8.87649 526.133C13.8767 522.189 20.3911 520.217 28.4197 520.217C36.5891 520.217 43.1739 522.189 48.1742 526.133C53.1744 530.006 55.8506 535.429 56.2028 542.401H36.6595C36.5187 540.007 35.6384 538.14 34.0186 536.802C32.3988 535.394 30.3212 534.69 27.7859 534.69C25.6027 534.69 23.842 535.288 22.5039 536.485C21.1658 537.612 20.4968 539.267 20.4968 541.451C20.4968 543.845 21.6236 545.711 23.8772 547.049C26.1309 548.387 29.6522 549.831 34.4411 551.381C39.2301 553 43.1035 554.55 46.0614 556.029C49.0897 557.508 51.6955 559.656 53.8787 562.473C56.0619 565.29 57.1535 568.917 57.1535 573.353C57.1535 577.579 56.0619 581.417 53.8787 584.868C51.7659 588.319 48.6672 591.066 44.5825 593.108C40.4978 595.15 35.6736 596.172 30.1099 596.172Z" fill="white"/>
<path d="M121.618 521.273V535.746H101.969V595.432H83.9049V535.746H64.2561V521.273H121.618Z" fill="white"/>
<path d="M148.431 521.273V565.642C148.431 570.079 149.523 573.494 151.706 575.889C153.889 578.283 157.094 579.481 161.319 579.481C165.545 579.481 168.784 578.283 171.038 575.889C173.292 573.494 174.419 570.079 174.419 565.642V521.273H192.483V565.536C192.483 572.156 191.074 577.755 188.257 582.333C185.44 586.91 181.637 590.361 176.848 592.685C172.13 595.009 166.848 596.172 161.002 596.172C155.157 596.172 149.91 595.045 145.262 592.791C140.685 590.467 137.058 587.016 134.381 582.438C131.705 577.79 130.367 572.156 130.367 565.536V521.273H148.431Z" fill="white"/>
<path d="M232.951 521.273C240.768 521.273 247.599 522.823 253.445 525.922C259.29 529.02 263.797 533.387 266.967 539.021C270.206 544.584 271.826 551.028 271.826 558.353C271.826 565.607 270.206 572.051 266.967 577.685C263.797 583.319 259.255 587.685 253.339 590.784C247.494 593.883 240.698 595.432 232.951 595.432H205.168V521.273H232.951ZM231.789 579.797C238.62 579.797 243.937 577.931 247.74 574.199C251.543 570.466 253.445 565.184 253.445 558.353C253.445 551.521 251.543 546.204 247.74 542.401C243.937 538.598 238.62 536.697 231.789 536.697H223.232V579.797H231.789Z" fill="white"/>
<path d="M299.985 521.273V595.432H281.921V521.273H299.985Z" fill="white"/>
<path d="M348.148 596.172C341.176 596.172 334.768 594.552 328.922 591.312C323.147 588.072 318.534 583.565 315.083 577.79C311.703 571.945 310.013 565.395 310.013 558.141C310.013 550.888 311.703 544.373 315.083 538.598C318.534 532.823 323.147 528.316 328.922 525.076C334.768 521.837 341.176 520.217 348.148 520.217C355.121 520.217 361.494 521.837 367.269 525.076C373.115 528.316 377.692 532.823 381.002 538.598C384.383 544.373 386.073 550.888 386.073 558.141C386.073 565.395 384.383 571.945 381.002 577.79C377.622 583.565 373.044 588.072 367.269 591.312C361.494 594.552 355.121 596.172 348.148 596.172ZM348.148 579.692C354.064 579.692 358.783 577.72 362.304 573.776C365.896 569.832 367.692 564.621 367.692 558.141C367.692 551.592 365.896 546.38 362.304 542.507C358.783 538.563 354.064 536.591 348.148 536.591C342.162 536.591 337.373 538.528 333.782 542.401C330.26 546.275 328.5 551.521 328.5 558.141C328.5 564.691 330.26 569.938 333.782 573.882C337.373 577.755 342.162 579.692 348.148 579.692Z" fill="white"/>
<path d="M453.581 596.172C446.609 596.172 440.2 594.552 434.355 591.312C428.58 588.072 423.967 583.565 420.516 577.79C417.136 571.945 415.445 565.395 415.445 558.141C415.445 550.888 417.136 544.373 420.516 538.598C423.967 532.823 428.58 528.316 434.355 525.076C440.2 521.837 446.609 520.217 453.581 520.217C460.553 520.217 466.927 521.837 472.702 525.076C478.547 528.316 483.125 532.823 486.435 538.598C489.815 544.373 491.506 550.888 491.506 558.141C491.506 565.395 489.815 571.945 486.435 577.79C483.054 583.565 478.477 588.072 472.702 591.312C466.927 594.552 460.553 596.172 453.581 596.172ZM453.581 579.692C459.497 579.692 464.216 577.72 467.737 573.776C471.329 569.832 473.124 564.621 473.124 558.141C473.124 551.592 471.329 546.38 467.737 542.507C464.216 538.563 459.497 536.591 453.581 536.591C447.595 536.591 442.806 538.528 439.214 542.401C435.693 546.275 433.932 551.521 433.932 558.141C433.932 564.691 435.693 569.938 439.214 573.882C442.806 577.755 447.595 579.692 453.581 579.692Z" fill="white"/>
<path d="M549.832 521.273V535.746H519.62V551.381H542.226V565.431H519.62V595.432H501.555V521.273H549.832Z" fill="white"/>
<path d="M627.877 582.333H600.2L595.763 595.432H576.854L603.686 521.273H624.602L651.435 595.432H632.314L627.877 582.333ZM623.229 568.388L614.039 541.239L604.954 568.388H623.229Z" fill="white"/>
<path d="M707.878 521.273V535.746H677.665V551.381H700.272V565.431H677.665V595.432H659.601V521.273H707.878Z" fill="white"/>
<path d="M755.191 595.432L739.768 567.438H735.437V595.432H717.373V521.273H747.691C753.536 521.273 758.501 522.295 762.586 524.337C766.741 526.379 769.84 529.196 771.882 532.788C773.925 536.309 774.946 540.253 774.946 544.62C774.946 549.549 773.537 553.951 770.72 557.825C767.974 561.698 763.889 564.445 758.466 566.064L775.58 595.432H755.191ZM735.437 554.655H746.635C749.945 554.655 752.409 553.845 754.029 552.226C755.719 550.606 756.565 548.317 756.565 545.359C756.565 542.542 755.719 540.324 754.029 538.704C752.409 537.084 749.945 536.274 746.635 536.274H735.437V554.655Z" fill="white"/>
<path d="M804.35 521.273V595.432H786.285V521.273H804.35Z" fill="white"/>
<path d="M814.377 558.247C814.377 550.923 815.962 544.408 819.131 538.704C822.3 532.929 826.702 528.457 832.336 525.288C838.04 522.048 844.484 520.428 851.668 520.428C860.471 520.428 868.007 522.752 874.274 527.401C880.542 532.049 884.733 538.387 886.846 546.416H866.985C865.506 543.317 863.394 540.958 860.647 539.338C857.971 537.718 854.907 536.908 851.456 536.908C845.893 536.908 841.386 538.845 837.935 542.718C834.484 546.592 832.758 551.768 832.758 558.247C832.758 564.726 834.484 569.903 837.935 573.776C841.386 577.649 845.893 579.586 851.456 579.586C854.907 579.586 857.971 578.776 860.647 577.156C863.394 575.537 865.506 573.177 866.985 570.079H886.846C884.733 578.107 880.542 584.446 874.274 589.094C868.007 593.671 860.471 595.96 851.668 595.96C844.484 595.96 838.04 594.376 832.336 591.206C826.702 587.967 822.3 583.495 819.131 577.79C815.962 572.086 814.377 565.571 814.377 558.247Z" fill="white"/>
<path d="M944.072 582.333H916.395L911.958 595.432H893.049L919.881 521.273H940.797L967.63 595.432H948.509L944.072 582.333ZM939.424 568.388L930.233 541.239L921.148 568.388H939.424Z" fill="white"/>
<path d="M1042.14 595.432H1024.07L993.86 549.69V595.432H975.796V521.273H993.86L1024.07 567.226V521.273H1042.14V595.432Z" fill="white"/>
<path d="M1179.67 521.273L1160.33 595.432H1138.47L1126.63 546.627L1114.38 595.432H1092.51L1073.71 521.273H1093.04L1103.71 575.255L1116.92 521.273H1136.78L1149.45 575.255L1160.23 521.273H1179.67Z" fill="white"/>
<path d="M1206.79 521.273V595.432H1188.72V521.273H1206.79Z" fill="white"/>
<path d="M1237.94 581.488H1261.61V595.432H1219.88V521.273H1237.94V581.488Z" fill="white"/>
<path d="M1298.01 521.273C1305.82 521.273 1312.66 522.823 1318.5 525.922C1324.35 529.02 1328.85 533.387 1332.02 539.021C1335.26 544.584 1336.88 551.028 1336.88 558.353C1336.88 565.607 1335.26 572.051 1332.02 577.685C1328.85 583.319 1324.31 587.685 1318.39 590.784C1312.55 593.883 1305.75 595.432 1298.01 595.432H1270.22V521.273H1298.01ZM1296.84 579.797C1303.68 579.797 1308.99 577.931 1312.8 574.199C1316.6 570.466 1318.5 565.184 1318.5 558.353C1318.5 551.521 1316.6 546.204 1312.8 542.401C1308.99 538.598 1303.68 536.697 1296.84 536.697H1288.29V579.797H1296.84Z" fill="white"/>
<path d="M1365.04 581.488H1388.7V595.432H1346.98V521.273H1365.04V581.488Z" fill="white"/>
<path d="M1415.38 521.273V595.432H1397.32V521.273H1415.38Z" fill="white"/>
<path d="M1476.75 521.273V535.746H1446.54V551.381H1469.15V565.431H1446.54V595.432H1428.48V521.273H1476.75Z" fill="white"/>
<path d="M1504.31 535.746V550.747H1528.5V564.691H1504.31V580.959H1531.67V595.432H1486.25V521.273H1531.67V535.746H1504.31Z" fill="white"/>
<path d="M1611.95 582.333H1584.27L1579.84 595.432H1560.93L1587.76 521.273H1608.68L1635.51 595.432H1616.39L1611.95 582.333ZM1607.3 568.388L1598.11 541.239L1589.03 568.388H1607.3Z" fill="white"/>
<path d="M1681.49 595.432L1666.07 567.438H1661.74V595.432H1643.67V521.273H1673.99C1679.84 521.273 1684.8 522.295 1688.89 524.337C1693.04 526.379 1696.14 529.196 1698.18 532.788C1700.23 536.309 1701.25 540.253 1701.25 544.62C1701.25 549.549 1699.84 553.951 1697.02 557.825C1694.27 561.698 1690.19 564.445 1684.77 566.064L1701.88 595.432H1681.49ZM1661.74 554.655H1672.94C1676.25 554.655 1678.71 553.845 1680.33 552.226C1682.02 550.606 1682.87 548.317 1682.87 545.359C1682.87 542.542 1682.02 540.324 1680.33 538.704C1678.71 537.084 1676.25 536.274 1672.94 536.274H1661.74V554.655Z" fill="white"/>
<path d="M1765.93 521.273V535.746H1746.29V595.432H1728.22V535.746H1708.57V521.273H1765.93Z" fill="white"/>
<path d="M51.531 298.65C69.081 318.446 85.856 333.088 101.877 342.592C118.652 352.292 135.06 357.142 151.081 357.142C166.156 357.142 178.631 352.971 188.568 344.621C198.481 336.275 203.447 325.7 203.447 312.896C203.447 298.934 199.343 287.967 191.147 280.013C182.372 272.451 163.018 264.588 133.08 256.434C92.263 245.184 63.38 230.63 46.413 212.78C29.251 194.534 20.667 169.713 20.667 138.272C20.667 97.522 34.109 64.33 61.013 38.722C87.53 12.918 122.263 0.001 165.188 0.001C189.426 0.001 211.363 3.213 231.017 9.618C251.709 16.018 271.321 25.522 289.9 38.13L253.988 121.663C241.405 110.609 228.05 102.063 213.921 96.055C200.179 90.438 186.738 87.622 173.575 87.622C160.221 87.622 149.058 91.01 140.092 97.805C131.509 104.205 127.209 112.751 127.209 123.413C127.209 133.705 130.93 142.225 138.392 149.021C146.221 155.421 160.929 161.542 182.5 167.354C183.254 167.55 183.942 167.7 184.5 167.787C185.083 167.9 185.942 168.137 187.083 168.508C233.683 181.116 264.437 195.3 279.32 211.008C289.062 220.908 296.695 233.429 302.245 248.546C307.212 262.904 309.687 279.204 309.687 297.45C309.687 342.458 295.083 378.842 265.858 406.592C236.437 433.946 197.491 447.625 148.971 447.625C119.188 447.625 92.584 442.687 69.188 432.787C45.788 422.891 22.734 406.983 0 385.045L51.529 298.649L51.531 298.65Z" fill="white"/>
<path d="M1082.74 0.001L1136.04 212.797C1138.37 221.355 1140.79 231.343 1143.29 242.747C1144.05 246.835 1145.12 252.689 1146.48 260.33C1147.83 267.972 1148.9 274.034 1149.68 278.53C1152.38 265.288 1154.79 252.134 1156.92 239.101C1158.07 232.789 1160.12 224.018 1163.01 212.797L1212.83 0.001H1329.57L1209.64 447.626H1102.45L1050.02 256.522C1046.34 242.268 1043.26 229.114 1040.76 217.089C1040.56 215.872 1039.97 213.414 1039.01 209.743C1038.03 206.072 1036.99 201.685 1035.82 196.593C1035.42 198.014 1034.08 204.026 1031.77 214.63C1028.29 230.951 1024.92 244.905 1021.64 256.522L970.08 447.626H862.609L742.959 0.001H859.696L908.363 214.034C909.905 221.171 912.234 232.28 915.321 247.363C918.408 263.267 920.429 274.467 921.408 280.988C923.912 268.342 925.846 259.388 927.196 254.088C930.675 237.376 933.654 224.017 936.175 214.034L989.475 0.001H1082.74Z" fill="white"/>
<path d="M1518.21 193.401C1517.51 192.163 1516.69 191.059 1515.66 190.097C1514.47 188.972 1513.12 188.122 1511.66 187.501C1509.99 186.768 1508.21 186.559 1506.38 186.63C1504.51 186.697 1502.75 187.226 1501.12 188.122C1499.73 188.88 1498.49 189.889 1497.42 191.13C1496.14 192.622 1495.29 194.363 1494.63 196.247C1494.29 197.255 1494.25 198.335 1494.11 199.414C1493.92 200.976 1494.16 202.514 1494.53 203.981C1495 205.844 1495.85 207.539 1497.03 209.031C1498.27 210.593 1499.79 211.764 1501.51 212.681C1503.29 213.623 1505.2 214.035 1507.14 214.014C1508.92 213.989 1510.68 213.622 1512.36 212.772C1513.43 212.247 1514.38 211.58 1515.3 210.847C1516.97 209.447 1518.14 207.609 1519.01 205.568C1519.73 203.935 1519.91 202.147 1520.03 200.197C1519.99 199.78 1519.95 199.185 1519.88 198.609C1519.71 196.73 1519.12 195.009 1518.21 193.401Z" fill="white"/>
<path d="M1621.61 204.074C1621.61 205.911 1621.55 207.77 1621.35 209.582C1621.2 211.007 1621.16 212.428 1620.9 213.853C1620.63 215.299 1620.55 216.766 1620.2 218.191C1619.85 219.612 1619.68 221.083 1619.29 222.503C1618.72 224.616 1618.26 226.774 1617.57 228.841C1616.94 230.724 1616.42 232.674 1615.63 234.508C1614.7 236.758 1613.89 239.079 1612.83 241.283C1611.93 243.141 1611.05 245 1610.11 246.812C1609.13 248.716 1608 250.508 1606.93 252.345C1606.13 253.72 1605.28 255.074 1604.43 256.428C1602.89 258.886 1601.13 261.157 1599.39 263.474C1598.37 264.828 1597.32 266.182 1596.21 267.445C1595.45 268.341 1594.73 269.307 1593.89 270.133C1593.58 270.433 1593.32 270.775 1593.04 271.095C1591.69 272.678 1590.19 274.124 1588.76 275.616C1587.54 276.858 1586.28 278.049 1584.95 279.174C1583.53 280.391 1582.08 281.561 1580.58 282.666C1579.68 283.308 1578.82 283.995 1577.88 284.545C1577.36 284.845 1576.9 285.283 1576.38 285.603C1574.93 286.499 1573.47 287.37 1571.97 288.174C1570.1 289.182 1568.23 290.17 1566.27 290.995C1565.12 291.478 1563.96 292.028 1562.77 292.395C1562.29 292.532 1561.86 292.807 1561.38 292.945C1559.98 293.383 1558.61 293.841 1557.22 294.253C1555.59 294.736 1553.96 295.128 1552.33 295.515C1550.2 295.998 1548.05 296.365 1545.89 296.619C1544.09 296.823 1542.28 296.986 1540.48 297.077C1538.76 297.169 1537.04 297.169 1535.33 297.123C1534.04 297.077 1532.73 297.102 1531.45 296.986C1528.67 296.686 1525.88 296.39 1523.13 295.769C1521.51 295.423 1519.9 295.127 1518.32 294.598C1516.6 294.023 1514.84 293.61 1513.16 292.877C1511.18 292.027 1509.16 291.294 1507.27 290.235C1505.05 289.018 1502.83 287.802 1500.7 286.381C1498.98 285.235 1497.38 283.927 1495.79 282.573C1494.68 281.631 1493.59 280.665 1492.57 279.631C1491.7 278.785 1490.83 277.91 1490.07 276.968C1489.72 276.556 1489.35 276.168 1489 275.776C1487.72 274.238 1486.53 272.63 1485.37 270.98C1484.28 269.418 1483.26 267.809 1482.35 266.134C1481.41 264.438 1480.54 262.717 1479.74 260.971C1479.35 260.121 1478.89 259.296 1478.57 258.4C1477.93 256.746 1477.33 255.071 1476.76 253.396C1476.37 252.271 1476 251.146 1475.7 250C1475.13 247.888 1474.59 245.754 1474.2 243.596C1474.02 242.584 1473.76 241.6 1473.67 240.588C1473.56 239.142 1473.22 237.721 1473.15 236.25C1473.11 235.287 1472.96 234.3 1472.89 233.333C1472.72 230.787 1472.67 228.216 1472.76 225.671C1472.81 224.384 1472.76 223.121 1472.89 221.838C1473.04 220.346 1473.09 218.805 1473.33 217.338C1473.54 215.938 1473.61 214.492 1473.91 213.092C1474.33 211.255 1474.52 209.371 1475.02 207.559C1475.44 206.092 1475.65 204.555 1476.13 203.084C1476.76 201.088 1477.26 199.047 1478.02 197.092C1478.81 195.05 1479.48 192.963 1480.39 190.988C1481.39 188.784 1482.39 186.605 1483.48 184.446C1484.26 182.908 1485.16 181.438 1486 179.946C1487.46 177.446 1488.99 174.988 1490.7 172.671C1492.35 170.446 1494.05 168.242 1495.84 166.129C1496.9 164.891 1497.99 163.675 1499.12 162.479C1500.44 161.104 1501.79 159.75 1503.19 158.442C1504.53 157.18 1505.92 155.984 1507.34 154.813C1508.51 153.825 1509.75 152.955 1510.95 151.992C1511.86 151.259 1512.79 150.546 1513.75 149.88C1515.27 148.826 1516.82 147.813 1518.38 146.826C1519.8 145.955 1521.21 145.084 1522.69 144.301C1524.19 143.501 1525.71 142.763 1527.23 142.03C1528.26 141.526 1529.3 141.068 1530.36 140.609C1531.37 140.171 1532.39 139.759 1533.41 139.413C1535.28 138.792 1537.15 138.151 1539.06 137.621C1540.08 137.346 1541.11 137.004 1542.15 136.867C1543.13 136.729 1544.09 136.429 1545.07 136.313C1546.22 136.176 1547.35 135.9 1548.5 135.834C1549.63 135.763 1550.76 135.559 1551.89 135.559C1553.59 135.559 1555.31 135.488 1557 135.626C1557.81 135.697 1558.63 135.626 1559.42 135.743C1561.33 136.039 1563.27 136.222 1565.16 136.66C1566.66 137.006 1568.03 137.531 1569.25 138.518C1570.75 139.714 1571.92 141.206 1572.62 143.039C1572.99 143.981 1573.21 144.993 1573.16 146.393C1573.06 147.814 1572.51 149.397 1571.4 150.776C1570.38 152.038 1569.14 152.98 1567.77 153.805C1566.79 154.401 1565.73 154.813 1564.75 155.459C1563.7 156.147 1562.59 156.742 1561.55 157.455C1560.25 158.326 1559.01 159.267 1557.85 160.368C1556.94 161.243 1556.16 162.23 1555.68 163.447C1555.13 164.801 1555.31 166.039 1556.26 167.143C1557.24 168.289 1558.55 168.864 1559.88 169.322C1561.59 169.943 1563.35 170.239 1565.16 170.284C1566.03 170.309 1566.83 170.217 1567.68 170.08C1568.94 169.897 1570.18 169.526 1571.42 169.205C1573.23 168.747 1574.99 168.08 1576.77 167.509C1577.95 167.142 1579.1 166.613 1580.3 166.292C1580.84 166.13 1581.34 165.854 1581.86 165.671C1583.32 165.142 1584.8 164.683 1586.23 164.109C1587.75 163.492 1589.32 163.03 1590.88 162.505C1591.54 162.276 1592.21 162.067 1592.86 161.909C1594.17 161.563 1595.52 161.217 1596.86 161.217C1598.19 161.217 1599.56 161.196 1600.89 161.446C1602.56 161.792 1604.26 162.067 1605.83 162.825C1607.59 163.65 1609.28 164.663 1610.74 166.017C1612.07 167.234 1613.22 168.654 1614.18 170.217C1615.18 171.867 1616 173.613 1616.65 175.45C1617 176.392 1617.37 177.329 1617.68 178.296C1618.28 180.267 1618.92 182.242 1619.37 184.263C1619.61 185.296 1619.9 186.305 1620.07 187.338C1620.44 189.609 1620.9 191.859 1621.07 194.134C1621.2 195.671 1621.44 197.209 1621.4 198.767C1621.38 199.525 1621.53 200.284 1621.53 201.042C1621.65 202.096 1621.61 203.084 1621.61 204.071M1621.68 0H1476.85L1330.56 447.621H1445.56L1467.56 367.517H1631.81L1653.26 447.621H1768.25L1621.68 0Z" fill="white"/>
<path d="M1517.19 237.952C1516.86 236.964 1516.21 236.14 1515.67 235.264C1515.21 234.51 1514.58 233.864 1513.95 233.293C1512.97 232.397 1511.95 231.547 1510.73 230.997C1508.2 229.847 1505.57 229.48 1502.86 229.964C1501.81 230.147 1500.79 230.56 1499.81 231.018C1498.22 231.801 1496.81 232.88 1495.64 234.235C1494.12 236.002 1493.18 238.114 1492.61 240.406C1492.35 241.419 1492.31 242.452 1492.35 243.623C1492.18 244.977 1492.57 246.398 1492.98 247.777C1493.55 249.681 1494.53 251.356 1495.79 252.827C1496.53 253.673 1497.38 254.41 1498.31 255.027C1500.75 256.635 1503.42 257.277 1506.25 257.139C1507.34 257.093 1508.42 256.772 1509.45 256.427C1511.25 255.81 1512.82 254.731 1514.16 253.352C1515.36 252.135 1516.36 250.735 1517.06 249.131C1517.71 247.685 1517.97 246.123 1518.17 244.56C1518.27 243.735 1518.17 242.885 1518.12 242.06C1518.1 240.614 1517.65 239.285 1517.19 237.952Z" fill="white"/>
<path d="M1547.44 256.796C1546.26 255.854 1544.94 255.188 1543.57 254.638C1542.09 254.042 1540.5 253.996 1538.93 253.971C1537.95 253.95 1537 254.25 1536.04 254.454C1534.97 254.708 1533.97 255.258 1533.04 255.833C1531.91 256.541 1530.87 257.37 1529.97 258.425C1528.78 259.825 1527.87 261.408 1527.28 263.175C1526.65 265.058 1526.45 267.008 1526.62 268.983C1526.8 270.821 1527.28 272.541 1528.12 274.15C1528.85 275.479 1529.71 276.671 1530.78 277.729C1531.89 278.829 1533.15 279.612 1534.5 280.275C1536.11 281.079 1537.87 281.263 1539.17 281.333C1540.63 281.379 1541.61 281.17 1542.55 280.966C1543.7 280.712 1544.8 280.183 1545.83 279.566C1547.02 278.854 1548.11 277.958 1549.07 276.858C1550.31 275.458 1551.13 273.825 1551.79 272.083C1552.37 270.545 1552.46 268.916 1552.48 267.283C1552.48 265.083 1551.89 263.016 1550.92 261.087C1550.09 259.433 1548.92 257.966 1547.44 256.795" fill="white"/>
<path d="M1584.88 242.382C1584.15 240.661 1583.06 239.19 1581.73 237.928C1580.32 236.574 1578.62 235.724 1576.84 235.061C1575.51 234.578 1574.1 234.486 1572.71 234.511C1570.64 234.557 1568.68 235.173 1566.88 236.207C1565.18 237.174 1563.75 238.528 1562.62 240.203C1561.73 241.511 1561.11 242.978 1560.66 244.495C1560.18 246.053 1560.14 247.662 1560.22 249.27C1560.35 251.287 1560.92 253.17 1561.85 254.937C1562.27 255.741 1562.81 256.499 1563.38 257.187C1564.57 258.658 1566.05 259.758 1567.68 260.654C1569.25 261.504 1571.01 261.779 1572.75 261.916C1573.93 262.008 1575.12 261.779 1576.27 261.503C1578.03 261.091 1579.62 260.195 1581.05 259.045C1582.67 257.783 1583.88 256.107 1584.82 254.249C1585.76 252.366 1586.08 250.299 1586.15 248.191C1586.21 247.178 1585.99 246.191 1585.84 245.208C1585.69 244.241 1585.28 243.299 1584.88 242.382Z" fill="white"/>
<path d="M479.706 248.235C479.685 247.46 479.885 246.706 479.86 245.927C479.793 243.485 480.281 241.09 480.506 238.673C480.748 236.123 481.214 233.569 481.881 231.085C482.456 228.977 482.814 226.802 483.744 224.781C484.323 223.498 484.877 222.164 484.698 220.677C484.677 220.477 484.765 220.277 484.811 220.056C485.344 217.439 486.232 214.931 487.073 212.402C488.402 208.431 490.177 204.727 492.577 201.285C493.331 200.222 494.019 199.11 494.573 197.914C495.415 196.139 496.261 194.385 497.436 192.81C498.411 191.502 499.253 190.102 500.273 188.839C502.248 186.418 504.469 184.31 507.773 183.868C509.527 183.622 511.302 183.422 513.077 183.314C515.519 183.135 517.956 182.868 520.423 182.647C522.552 182.447 524.66 182.293 526.79 182.072C527.898 181.96 528.052 181.58 527.565 180.605C526.611 178.697 527.077 177.209 528.919 176.188C529.961 175.613 531.006 175.059 532.069 174.526C532.448 174.326 532.802 174.105 532.936 173.684C533.424 172.042 534.599 170.93 535.732 169.755C538.436 166.917 541.565 165.142 545.628 165.384C547.557 165.496 549.399 166.097 551.307 166.338C552.707 166.517 554.103 167.026 555.524 166.738C557.966 166.23 560.428 165.896 562.912 165.784C567.237 165.584 570.787 163.655 574.116 161.101C576.933 158.93 579.533 156.509 582.195 154.134C584.433 152.159 586.453 150.03 588.007 147.455C589.095 145.638 589.957 143.751 590.603 141.734C591.799 138.026 592.486 134.209 592.911 130.351C593.153 128.109 594.461 126.58 596.482 125.601C598.565 124.605 600.74 124.072 603.003 123.605C607.865 122.605 612.745 121.943 617.736 122.143C618.136 122.164 618.557 122.051 618.982 122.051C620.245 122.051 621.578 121.564 622.728 122.564C622.841 122.672 623.061 122.672 623.241 122.672C624.749 122.63 626.258 122.872 627.766 122.897C629.654 122.918 631.541 123.097 633.424 123.272C635.845 123.518 638.241 123.872 640.657 124.093C642.653 124.293 644.628 124.539 646.536 125.068C648.865 125.735 651.307 125.447 653.615 126.047C655.169 125.647 656.698 126.114 658.186 126.289C660.428 126.581 662.669 126.889 664.886 127.222C664.086 125.58 663.332 123.939 662.669 122.23C662.048 120.588 661.048 119.388 659.494 118.526C657.698 117.526 656.032 116.326 654.282 115.239C653.528 114.776 653.174 114.089 653.061 113.243C652.507 108.851 651.928 104.456 651.373 100.064C651.286 99.289 651.04 98.622 650.598 97.981C648.731 95.339 646.202 93.518 643.252 92.323C641.989 91.81 641.369 91.123 641.302 89.727C641.19 87.419 640.877 85.11 640.677 82.802C640.61 82.115 640.414 81.54 639.789 81.181C637.218 79.631 635.531 77.277 633.935 74.793C631.647 71.243 630.118 67.293 627.831 63.743C626.102 61.081 624.594 58.218 622.552 55.801C621.065 54.026 620.023 52.051 619.002 50.03C618.781 49.588 618.623 49.122 618.781 48.634C618.914 48.276 619.068 47.88 619.443 47.767C619.93 47.613 620.089 48.075 620.264 48.388C622.039 51.43 624.347 54.092 626.635 56.755C627.589 57.863 628.743 58.751 629.96 59.572C630.914 60.214 631.248 60.08 631.935 59.105C633.443 56.951 634.043 54.513 634.202 51.938C634.465 47.634 633.644 43.55 631.781 39.667C631.16 38.379 630.96 38.246 629.539 38.559C628.052 38.892 626.589 39.18 625.06 39.247C621.798 39.401 618.735 38.626 615.785 37.318C614.364 36.697 613.031 36.651 611.548 37.031C608.131 37.919 604.802 38.981 601.673 40.602C601.052 40.91 600.431 41.289 599.698 40.869C597.056 39.402 594.24 39.248 591.356 39.915C590.689 40.069 590.269 39.915 589.869 39.315C589.115 38.115 587.961 37.452 586.606 37.052C584.21 36.34 581.727 36.164 579.239 36.01C578.131 35.943 576.997 35.985 575.756 35.985C576.244 35.452 577.264 35.81 577.11 34.922C576.997 34.276 576.243 34.41 575.756 34.276C575.335 34.168 574.914 34.122 574.494 34.034C572.052 33.609 569.59 33.167 567.148 32.747C566.44 32.634 565.952 32.459 565.994 31.547C566.061 29.264 565.419 28.485 563.244 27.864C561.711 27.422 560.136 27.443 558.561 27.556C553.261 27.931 548.89 30.039 545.849 34.543C545.295 35.385 545.095 36.01 545.737 37.005C547.425 39.668 546.758 41.73 543.941 43.309C543.074 43.796 542.212 43.817 541.324 43.351C540.457 42.884 539.591 42.464 538.728 42.022C534.311 39.755 529.74 38.047 524.703 37.939C523.682 37.918 522.974 37.493 522.328 36.764C521.199 35.431 520.224 33.943 519.911 32.235C519.623 30.618 518.644 29.927 517.294 29.531C514.119 28.552 510.902 27.823 507.573 28.577C506.377 28.844 505.665 28.51 504.802 27.577C502.627 25.16 500.031 23.519 496.523 24.248C495.994 24.36 495.436 24.34 494.973 23.981C492.219 21.898 492.11 19.41 494.548 17.368C495.281 16.747 496.102 16.218 496.923 15.66C497.544 15.239 497.923 14.731 497.99 13.952C498.211 11.49 497.59 9.36 495.682 7.673C494.882 6.965 494.861 6.919 495.661 6.231C496.723 5.302 497.344 4.123 497.59 2.773C497.811 1.594 497.569 1.152 496.482 0.773C492.665 -0.535 489.003 -0.223 485.632 2.04C484.653 2.707 483.857 2.84 482.811 2.348C481.169 1.594 479.44 1.352 477.619 1.306C474.915 1.239 472.34 1.66 469.856 2.681C468.369 3.281 466.948 3.235 465.439 2.773C460.756 1.352 455.985 0.819 451.06 1.265C447.489 1.573 444.093 2.482 440.964 4.015C438.481 5.236 436.018 5.769 433.335 5.569C433.068 5.544 432.802 5.569 432.514 5.569C431.56 5.523 430.739 5.79 429.893 6.277C425.81 8.56 421.418 9.006 416.868 8.231C413.41 7.631 410.547 5.856 408.06 3.393C406.839 2.172 406.639 2.193 405.156 3.126C402.402 4.834 400.427 7.209 398.943 10.026C398.564 10.734 398.21 11.447 397.476 11.914C392.884 14.885 388.226 17.726 382.968 19.389C381.435 19.877 380.281 20.722 379.351 21.964C376.622 25.689 374.601 29.706 374.713 34.476C374.713 35.03 374.646 35.564 374.201 35.963C372.959 37.096 371.759 38.246 370.451 39.292C366.301 42.617 361.643 44.95 356.472 46.192C355.743 46.367 355.055 46.659 354.435 47.121C351.902 49.009 350.064 51.45 348.731 54.267C348.31 55.175 347.756 55.709 346.823 56.063C344.74 56.863 342.765 57.905 341.319 59.659C339.657 61.655 338.236 63.83 337.327 66.292C337.06 67.004 336.748 67.692 336.152 68.2C333.289 70.663 330.469 73.171 328.006 76.054C325.323 79.183 322.839 82.425 320.973 86.108C320.311 87.416 320.111 88.612 320.906 89.925C321.131 90.279 321.264 90.721 321.352 91.142C322.219 94.85 322.527 98.642 322.085 102.417C321.264 109.405 319.023 115.971 315.56 122.117C314.206 124.513 312.785 126.867 311.168 129.109C310.547 129.972 310.522 130.705 311.101 131.613C312.163 133.301 313.097 135.075 314.163 136.763C314.759 137.717 314.892 138.538 314.405 139.626C313.472 141.755 312.717 143.951 311.922 146.126C311.522 147.193 311.568 147.259 312.543 147.768C313.164 148.101 313.805 148.368 314.406 148.768C318.864 151.697 322.348 155.555 325.102 160.08C328.498 165.697 330.535 171.842 331.869 178.209C332.115 179.43 332.602 180.297 333.577 180.984C336.019 182.692 338.414 184.421 340.831 186.151C347.464 190.901 354.123 195.605 360.735 200.376C361.735 201.105 362.685 201.305 363.906 200.997C366.948 200.197 369.985 199.443 373.048 198.822C378.885 197.647 384.785 196.98 390.756 197.201C394.548 197.334 398.323 197.689 401.581 199.93C402.269 200.397 402.96 200.463 403.714 200.063C406.906 198.355 410.322 197.134 413.652 195.738C418.002 193.917 422.573 192.83 427.144 191.7C430.273 190.921 433.465 191.033 436.661 191.033C439.215 191.033 441.586 191.7 443.828 192.854C445.561 193.742 447.203 194.804 448.199 196.604C449.045 198.112 449.974 199.596 450.241 201.35C450.508 203.038 451.574 203.725 453.103 203.967C453.591 204.034 454.082 204.034 454.57 204.059C458.649 204.259 462.645 203.705 466.595 202.684C467.591 202.417 468.591 202.238 469.591 201.996C470.145 201.863 470.679 201.863 471.099 202.284C472.72 203.926 474.603 205.346 475.67 207.496C476.712 209.604 477.424 211.825 477.133 214.196C476.912 216.084 476.533 218.013 475.425 219.567C474.05 221.475 473.938 223.538 474.029 225.713C474.05 225.98 474.029 226.246 474.029 226.534C474.117 229.617 473.296 232.413 471.475 234.901C471.013 235.543 470.921 236.118 471.167 236.851C471.767 238.651 472.342 240.447 472.721 242.309C472.854 242.955 473.096 243.617 473.629 243.996C475.271 245.125 476.337 246.771 477.712 248.146C478.441 248.875 479.133 249.675 479.841 250.45C479.754 249.696 479.708 248.967 479.708 248.233" fill="white"/>
<path d="M740.369 158.618C739.923 158.11 739.394 157.951 738.794 158.351C737.327 159.284 735.686 159.859 734.111 160.572C730.361 162.301 726.457 163.63 722.265 163.476C720.157 163.409 718.315 163.788 716.694 165.164C716.452 165.364 716.14 165.497 715.852 165.672C715.031 166.205 714.164 166.339 713.231 165.939C711.989 165.431 710.727 165.452 709.419 165.697C707.577 166.051 705.932 166.826 704.382 167.826C703.361 168.493 703.14 168.468 702.382 167.493C701.386 166.205 700.211 165.076 699.011 163.989C697.369 162.502 695.461 161.547 693.178 161.568C692.82 161.568 692.424 161.681 692.111 161.347C692.024 160.88 692.423 160.68 692.665 160.439C693.219 159.839 693.773 159.26 694.394 158.731C695.061 158.131 695.127 157.485 694.706 156.71C694.26 155.889 693.798 155.114 693.264 154.36C691.001 151.206 688.114 148.677 685.076 146.348C681.347 143.465 677.309 141.069 673.118 138.94C672.851 138.807 672.651 138.607 672.43 138.473C670.676 138.427 668.922 138.54 667.172 138.606C666.105 138.648 665.064 138.294 663.951 138.452C662.909 138.273 661.868 138.627 660.78 138.627C660.401 138.627 660.092 138.827 659.872 139.115C659.514 139.582 659.051 139.782 658.493 139.827C656.964 139.935 655.455 140.335 653.947 140.581C653.568 140.648 653.101 140.689 652.88 140.981C652.126 141.956 651.017 142.11 649.951 142.289C648.068 142.577 646.426 143.485 644.805 144.397C644.205 144.73 643.497 144.993 643.076 145.593C642.343 146.593 641.101 147.014 640.368 148.035C640.281 148.168 640.056 148.189 639.881 148.256C639.656 148.348 639.481 148.523 639.348 148.723C638.573 149.856 637.527 150.785 636.973 152.073C636.84 152.385 636.598 152.606 636.306 152.76C636.039 152.918 635.864 153.16 635.798 153.448C635.619 154.248 635.244 154.89 634.444 155.202C634.244 155.289 634.09 155.423 634.002 155.623C633.577 156.777 632.869 157.71 632.16 158.706C631.272 159.952 630.293 161.127 629.452 162.414C628.564 163.789 627.523 165.118 626.235 166.164C626.123 166.252 625.989 166.364 625.947 166.493C625.28 168.026 623.86 168.96 622.905 170.268C622.305 171.089 621.33 171.489 620.797 172.264C619.601 173.972 617.868 175.172 616.626 176.835C615.851 177.902 614.672 178.631 613.897 179.743C613.585 180.185 613.189 180.651 612.655 180.872C612.101 181.118 611.722 181.493 611.413 181.959C611.08 182.426 610.725 182.913 610.259 183.18C609.372 183.668 608.838 184.509 608.13 185.176C607.772 185.509 607.638 185.889 607.73 186.376C607.863 187.197 608.105 188.151 607.663 188.814C606.909 189.947 607.417 191.414 606.442 192.497C606.063 192.922 605.842 193.451 605.267 193.718C604.888 193.897 604.534 194.118 604.179 194.297C603.666 194.564 603.579 194.872 603.954 195.359C604.512 196.092 605.087 196.826 605.487 197.647C606.329 199.334 607.529 200.684 609.104 201.705C612.5 203.88 615.758 206.255 619.021 208.584C621.729 210.513 624.371 212.513 627.275 214.155C628.429 214.817 629.563 215.509 630.492 216.505C631.625 217.772 631.825 219.434 631.025 220.922C630.404 222.076 629.496 222.939 628.517 223.759C628.229 224.005 627.854 224.184 627.788 224.605C627.655 225.338 627.076 225.647 626.521 226.001C625.258 226.822 624.104 227.776 623.217 229.022C622.817 229.576 622.371 230.039 621.663 230.284C620.663 230.617 619.842 231.305 618.867 231.751C617.334 232.459 615.85 233.08 614.163 233.08C613.409 233.08 612.721 233.213 612.034 233.547C609.926 234.589 607.93 234.168 606.396 232.593C604.909 231.06 603.425 229.531 602.179 227.801C600.983 226.134 599.475 224.739 598.166 223.164C597.233 222.051 595.833 221.522 594.904 220.435C593.596 218.948 591.842 217.906 590.508 216.418C590.4 216.285 590.245 216.172 590.066 216.131C587.891 215.244 586.095 213.802 584.187 212.469C583.633 212.069 583.054 211.715 582.412 211.469C577.708 209.606 573.379 207.032 569.141 204.302C568.654 203.994 568.187 203.86 567.633 203.973C566.679 204.169 565.725 204.369 564.771 204.548C563.796 204.727 562.796 204.902 561.842 205.215C559.846 205.857 557.896 206.611 555.809 206.99C554.522 207.232 553.192 207.344 551.992 207.786C549.796 208.586 547.509 208.874 545.292 209.519C543.25 210.094 541.188 210.627 539.192 211.336C537.417 211.961 535.617 212.536 533.867 213.223C532.2 213.869 530.671 214.731 529.03 215.398C527.388 216.065 525.943 217.24 524.413 218.194C524.146 218.348 524.013 218.615 523.859 218.861C523.192 219.836 522.751 221.057 521.751 221.678C520.664 222.366 520.089 223.407 519.355 224.34C519.109 224.652 518.888 224.961 518.709 225.294C518.267 226.069 517.667 226.469 516.738 226.336C516.246 226.269 515.892 226.424 515.692 226.936C514.984 228.844 513.384 230.132 512.234 231.728C511.788 232.349 511.213 232.882 510.88 233.59C510.167 235.144 509.038 236.411 508.017 237.765C507.771 238.094 507.438 238.294 507.017 238.253C506.217 238.161 505.755 238.561 505.421 239.249C504.708 240.782 503.8 242.137 502.292 242.999C502.005 243.157 501.78 243.399 501.425 243.445C501.137 243.487 500.937 243.645 500.804 243.912C500.204 244.954 499.717 246.041 498.829 246.929C498.162 247.571 497.567 248.258 496.633 248.416C496.079 248.504 495.833 248.791 495.612 249.258C494.904 250.812 494.058 252.254 492.595 253.229C492.416 253.342 492.262 253.562 492.062 253.516C491.02 253.274 490.733 254.049 490.575 254.762C490.221 256.379 488.4 256.558 487.692 257.779C487.646 257.846 487.471 257.846 487.359 257.846C486.959 257.821 486.672 258 486.426 258.267C488.893 261.371 491.263 264.567 493.305 268.009C495.947 272.446 498.297 276.971 499.143 282.142C499.451 283.984 499.451 285.692 497.743 286.954C497.014 287.487 497.014 288.175 497.435 288.975C499.097 292.079 500.185 295.429 501.318 298.758C502.16 301.2 502.339 303.729 502.16 306.279C502.047 307.791 501.493 309.121 500.406 310.208C499.344 311.296 498.277 312.358 497.189 313.404C496.368 314.2 495.701 315.112 495.172 316.133C493.926 318.55 492.93 321.058 492.443 323.741C491.951 326.449 491.597 329.179 491.355 331.929C491.043 335.479 490.734 339.029 490.801 342.604C490.822 343.2 490.93 343.754 491.288 344.287C491.996 345.308 492.617 346.374 493.33 347.416C497.276 353.162 500.917 359.108 504.201 365.254C505.355 367.408 506.284 369.65 507.105 371.933C507.797 373.82 508.059 375.775 508.059 377.812C508.038 381.474 507.971 385.112 508.592 388.775C509.946 396.675 512.896 403.687 518.534 409.454C518.909 409.854 519.267 410.254 519.509 410.742C521.597 414.892 523.859 418.95 525.567 423.279C526.3 425.162 527.009 426.962 528.629 428.446C530.604 430.246 530.604 432.996 528.937 435.059C528.162 436.038 528.029 436.967 528.429 438.055C528.629 438.609 528.783 439.188 529.004 439.743C530.446 443.426 532.8 446.264 536.616 447.664C538.037 448.197 539.499 448.372 540.874 447.685C543.182 446.531 545.645 445.998 548.107 445.356C551.169 444.535 554.299 444.314 557.428 444.268C560.378 444.222 563.328 444.647 566.257 445.243C569.032 445.822 571.828 445.735 574.599 445.068C576.287 444.668 577.862 443.98 579.461 443.293C583.519 441.493 587.069 438.943 590.311 435.993C595.478 431.289 600.049 426.03 603.732 420.039C604.153 419.331 604.732 418.776 605.399 418.285C607.749 416.577 610.078 414.802 612.432 413.093C613.007 412.672 613.494 412.185 613.894 411.61C614.894 410.189 615.782 408.702 616.423 407.081C617.756 403.689 618.952 400.227 617.002 396.631C616.735 396.143 616.735 395.589 617.002 395.056C618.264 392.573 620.127 390.773 622.989 390.377C624.389 390.177 625.743 389.819 627.072 389.377C628.605 388.865 630.001 388.09 631.268 387.002C633.772 384.827 635.06 382.01 635.593 378.86C635.86 377.352 636.393 375.798 636.08 374.223C635.68 372.161 635.705 370.027 635.172 367.985C634.772 366.435 634.659 364.793 633.73 363.372C632.576 361.618 632.663 359.909 633.972 358.314C634.772 357.335 635.747 356.581 636.814 355.918C638.343 354.985 639.918 354.164 641.518 353.389C644.58 351.901 646.91 349.614 648.639 346.752C649.106 345.998 649.66 345.577 650.481 345.335C653.231 344.556 655.939 343.668 658.56 342.448C662.464 340.606 666.147 338.477 668.985 335.173C671.293 332.485 673.223 329.536 672.514 325.652C672.447 325.231 672.493 324.789 672.493 324.365C672.493 321.548 672.493 318.752 672.468 315.936C672.447 313.828 672.535 311.719 672.226 309.632C672.005 308.19 672.114 306.815 673.222 305.553C674.468 304.132 674.309 302.778 673.114 301.291C672.335 300.316 671.426 299.449 670.231 298.983C669.098 298.541 668.456 297.808 668.564 296.521C668.61 296.1 668.522 295.658 668.41 295.238C667.923 293.13 667.235 291.088 665.881 289.334C664.927 288.113 664.994 288.046 665.769 286.784C666.148 286.184 666.457 285.563 666.769 284.942C668.344 281.813 667.877 277.375 664.727 275.534C663.819 275.001 663.594 274.134 663.927 273.138C665.127 269.542 666.281 265.925 668.077 262.596C671.648 256.008 676.285 250.304 682.098 245.559C683.277 244.605 684.452 243.651 685.273 242.342C685.915 241.342 686.694 240.455 687.423 239.521C690.885 235.129 694.815 231.2 699.406 227.984C702.735 225.655 706.306 223.746 710.323 222.859C711.19 222.659 711.898 222.238 712.565 221.638C714.561 219.73 716.402 217.688 718.198 215.605C721.373 211.922 724.41 208.126 727.052 204.043C727.585 203.222 728.139 202.426 728.694 201.626C731.048 198.322 732.957 194.726 734.752 191.109C736.794 186.98 738.389 182.701 739.723 178.284C741.298 173.005 742.094 167.655 741.94 162.155C741.873 160.667 741.207 159.626 740.365 158.626" fill="white"/>
</svg>
