<svg width="1800" height="473" viewBox="0 0 1800 473" fill="none" xmlns="http://www.w3.org/2000/svg">
<path d="M54.6246 316.928C73.228 337.583 91.0107 352.858 107.995 362.775C125.778 372.898 143.173 377.959 160.158 377.959C176.139 377.959 189.362 373.605 199.895 364.896C210.405 356.187 215.672 345.152 215.672 331.793C215.672 317.225 211.317 305.78 202.631 297.481C193.329 289.593 172.811 281.386 141.076 272.882C97.8046 261.141 67.1865 245.957 49.1987 227.331C31.0056 208.294 21.9091 182.395 21.9091 149.589C21.9091 107.07 36.1581 72.4394 64.6787 45.7198C92.789 18.7951 129.608 5.32129 175.113 5.32129C200.807 5.32129 224.061 8.67269 244.899 15.3526C266.831 22.0325 287.623 31.9497 307.321 45.1043L269.248 132.262C255.911 120.726 241.753 111.812 226.774 105.543C212.206 99.6834 197.957 96.7424 184.005 96.7424C169.847 96.7424 158.015 100.276 148.508 107.366C139.411 114.046 134.852 122.96 134.852 134.086C134.852 144.824 138.796 153.715 146.707 160.806C155.005 167.485 170.599 173.869 193.466 179.933C194.264 180.138 194.994 180.298 195.586 180.389C196.202 180.503 197.114 180.754 198.322 181.142C247.726 194.296 280.328 209.092 296.104 225.484C306.432 235.812 314.525 248.875 320.407 264.652C325.673 279.63 328.295 296.638 328.295 315.674C328.295 362.639 312.815 400.598 281.832 429.551C250.644 458.095 209.357 472.367 157.924 472.367C126.348 472.367 98.1465 467.214 73.342 456.887C48.5375 446.559 24.0978 429.962 0 407.072L54.6246 316.928Z" fill="white"/>
<path d="M1148.31 15.9688L1204.18 227.332C1206.62 235.835 1209.15 245.753 1211.78 257.083C1212.57 261.141 1213.69 266.955 1215.13 274.547C1216.54 282.139 1217.66 288.157 1218.48 292.626C1221.31 279.471 1223.84 266.408 1226.07 253.458C1227.28 247.189 1229.42 238.48 1232.45 227.332L1284.68 15.9688H1407.07L1281.33 460.581H1168.96L1113.99 270.762C1110.14 256.605 1106.9 243.541 1104.28 231.595C1104.08 230.386 1103.46 227.947 1102.46 224.299C1101.43 220.652 1100.34 216.297 1099.11 211.236C1098.7 212.649 1097.28 218.623 1094.87 229.155C1091.22 245.365 1087.68 259.226 1084.24 270.762L1030.19 460.581H917.518L792.082 15.9688H914.463L965.486 228.563C967.104 235.653 969.544 246.687 972.781 261.666C976.018 277.465 978.139 288.59 979.165 295.065C981.787 282.503 983.815 273.612 985.229 268.346C988.877 251.749 992 238.48 994.645 228.563L1050.52 15.9688H1148.31Z" fill="white"/>
<path d="M1548.51 209.837C1547.78 208.606 1546.91 207.512 1545.84 206.555C1544.59 205.437 1543.17 204.594 1541.65 203.978C1539.89 203.249 1538.02 203.044 1536.11 203.112C1534.15 203.18 1532.3 203.705 1530.59 204.594C1529.13 205.346 1527.83 206.349 1526.71 207.58C1525.37 209.062 1524.48 210.795 1523.8 212.664C1523.43 213.668 1523.38 214.739 1523.25 215.811C1523.04 217.361 1523.29 218.888 1523.68 220.347C1524.18 222.194 1525.07 223.881 1526.3 225.363C1527.6 226.913 1529.2 228.076 1531 228.988C1532.87 229.923 1534.88 230.333 1536.9 230.31C1538.77 230.288 1540.62 229.923 1542.38 229.079C1543.49 228.555 1544.5 227.894 1545.45 227.164C1547.21 225.773 1548.44 223.95 1549.35 221.921C1550.1 220.302 1550.29 218.524 1550.42 216.586C1550.38 216.175 1550.33 215.583 1550.26 215.013C1550.08 213.143 1549.47 211.433 1548.51 209.837Z" fill="white"/>
<path d="M1646.34 15.9658H1494.5L1341.14 460.578H1461.7L1484.77 381.012H1656.96L1679.44 460.578H1800L1646.34 15.9658ZM1646.27 218.665C1646.27 220.489 1646.2 222.336 1646 224.137C1645.84 225.55 1645.79 226.964 1645.52 228.377C1645.24 229.814 1645.15 231.273 1644.79 232.686C1644.42 234.1 1644.24 235.559 1643.83 236.972C1643.24 239.07 1642.76 241.213 1642.03 243.265C1641.37 245.134 1640.82 247.072 1640 248.896C1639.02 251.13 1638.18 253.433 1637.06 255.621C1636.13 257.468 1635.19 259.315 1634.21 261.116C1633.18 263.008 1632 264.786 1630.88 266.61C1630.04 267.978 1629.15 269.323 1628.26 270.668C1626.64 273.107 1624.79 275.365 1622.97 277.667C1621.9 279.012 1620.81 280.357 1619.64 281.611C1618.84 282.5 1618.09 283.458 1617.2 284.279C1616.88 284.575 1616.61 284.917 1616.31 285.236C1614.9 286.809 1613.33 288.246 1611.82 289.728C1610.55 290.959 1609.22 292.144 1607.83 293.261C1606.35 294.47 1604.82 295.632 1603.25 296.727C1602.32 297.365 1601.4 298.049 1600.42 298.596C1599.88 298.892 1599.4 299.326 1598.85 299.645C1597.32 300.534 1595.8 301.4 1594.22 302.198C1592.26 303.201 1590.3 304.182 1588.25 305.002C1587.04 305.481 1585.83 306.028 1584.58 306.393C1584.08 306.53 1583.62 306.803 1583.12 306.94C1581.66 307.373 1580.22 307.829 1578.77 308.24C1577.06 308.718 1575.35 309.106 1573.64 309.494C1571.4 309.972 1569.14 310.337 1566.89 310.588C1564.99 310.793 1563.1 310.953 1561.21 311.044C1559.41 311.135 1557.61 311.135 1555.81 311.089C1554.46 311.044 1553.09 311.067 1551.75 310.953C1548.83 310.656 1545.91 310.36 1543.02 309.744C1541.33 309.402 1539.64 309.106 1537.98 308.582C1536.18 308.012 1534.33 307.601 1532.58 306.872C1530.5 306.028 1528.38 305.299 1526.4 304.25C1524.07 303.042 1521.75 301.833 1519.51 300.42C1517.71 299.28 1516.02 297.98 1514.36 296.635C1513.2 295.701 1512.06 294.743 1510.99 293.717C1510.07 292.874 1509.16 292.007 1508.36 291.073C1508 290.662 1507.61 290.275 1507.25 289.887C1505.9 288.36 1504.65 286.764 1503.44 285.122C1502.3 283.572 1501.23 281.976 1500.27 280.312C1499.29 278.625 1498.38 276.915 1497.53 275.182C1497.12 274.339 1496.65 273.518 1496.3 272.629C1495.64 270.987 1495 269.323 1494.41 267.659C1494 266.542 1493.61 265.425 1493.29 264.285C1492.7 262.187 1492.13 260.067 1491.72 257.924C1491.54 256.921 1491.27 255.94 1491.17 254.937C1491.06 253.501 1490.7 252.088 1490.63 250.628C1490.58 249.671 1490.42 248.691 1490.35 247.733C1490.17 245.202 1490.13 242.649 1490.22 240.118C1490.26 238.842 1490.22 237.588 1490.35 236.311C1490.51 234.829 1490.56 233.302 1490.81 231.843C1491.04 230.452 1491.11 229.016 1491.42 227.625C1491.86 225.801 1492.06 223.932 1492.59 222.131C1493.02 220.672 1493.25 219.144 1493.75 217.685C1494.41 215.702 1494.94 213.672 1495.73 211.735C1496.55 209.706 1497.26 207.631 1498.22 205.67C1499.27 203.482 1500.32 201.316 1501.46 199.173C1502.28 197.645 1503.21 196.186 1504.1 194.704C1505.63 192.219 1507.22 189.78 1509.03 187.477C1510.76 185.266 1512.54 183.077 1514.41 180.98C1515.52 179.749 1516.66 178.54 1517.85 177.355C1519.24 175.987 1520.65 174.642 1522.11 173.342C1523.52 172.088 1524.98 170.903 1526.47 169.74C1527.7 168.76 1529 167.894 1530.25 166.936C1531.21 166.206 1532.19 165.5 1533.19 164.839C1534.79 163.79 1536.41 162.787 1538.05 161.806C1539.53 160.94 1541.01 160.074 1542.56 159.299C1544.13 158.501 1545.73 157.771 1547.33 157.042C1548.4 156.54 1549.49 156.084 1550.61 155.628C1551.66 155.195 1552.73 154.784 1553.8 154.443C1555.76 153.827 1557.72 153.189 1559.73 152.664C1560.8 152.391 1561.87 152.049 1562.97 151.912C1563.99 151.775 1564.99 151.479 1566.02 151.365C1567.23 151.228 1568.41 150.954 1569.62 150.886C1570.81 150.818 1571.99 150.612 1573.18 150.612C1574.96 150.612 1576.76 150.544 1578.54 150.681C1579.38 150.749 1580.25 150.681 1581.07 150.795C1583.07 151.091 1585.1 151.274 1587.09 151.707C1588.66 152.049 1590.1 152.573 1591.37 153.553C1592.95 154.739 1594.18 156.221 1594.91 158.045C1595.29 158.979 1595.52 159.983 1595.48 161.373C1595.36 162.787 1594.79 164.36 1593.63 165.728C1592.56 166.982 1591.26 167.916 1589.82 168.737C1588.8 169.33 1587.68 169.74 1586.65 170.379C1585.56 171.063 1584.4 171.655 1583.3 172.362C1581.93 173.228 1580.63 174.163 1579.43 175.257C1578.47 176.124 1577.65 177.104 1577.15 178.312C1576.58 179.657 1576.76 180.889 1577.76 181.983C1578.79 183.123 1580.16 183.693 1581.55 184.149C1583.35 184.764 1585.19 185.061 1587.09 185.106C1588 185.129 1588.84 185.038 1589.73 184.901C1591.05 184.719 1592.35 184.354 1593.65 184.035C1595.54 183.579 1597.39 182.918 1599.26 182.348C1600.49 181.983 1601.7 181.459 1602.95 181.139C1603.52 180.98 1604.05 180.706 1604.6 180.524C1606.12 179.999 1607.67 179.543 1609.18 178.973C1610.77 178.358 1612.42 177.902 1614.06 177.378C1614.74 177.15 1615.45 176.944 1616.13 176.785C1617.5 176.443 1618.91 176.101 1620.33 176.101C1621.72 176.101 1623.15 176.078 1624.54 176.329C1626.3 176.671 1628.08 176.944 1629.72 177.697C1631.57 178.518 1633.34 179.521 1634.87 180.866C1636.26 182.074 1637.47 183.488 1638.47 185.038C1639.52 186.679 1640.39 188.412 1641.07 190.236C1641.44 191.171 1641.83 192.105 1642.14 193.063C1642.78 195.023 1643.44 196.984 1643.92 198.99C1644.17 200.016 1644.47 201.019 1644.65 202.045C1645.04 204.302 1645.52 206.537 1645.7 208.794C1645.84 210.321 1646.09 211.849 1646.04 213.399C1646.02 214.151 1646.18 214.904 1646.18 215.656C1646.32 216.705 1646.27 217.685 1646.27 218.665Z" fill="white"/>
<path d="M1547.44 254.09C1547.1 253.11 1546.41 252.289 1545.84 251.422C1545.36 250.67 1544.7 250.032 1544.04 249.462C1543.01 248.573 1541.94 247.729 1540.67 247.182C1538.02 246.042 1535.26 245.677 1532.41 246.156C1531.32 246.338 1530.25 246.749 1529.22 247.205C1527.56 247.98 1526.08 249.051 1524.84 250.397C1523.25 252.152 1522.27 254.249 1521.68 256.529C1521.4 257.532 1521.36 258.558 1521.4 259.721C1521.22 261.066 1521.63 262.48 1522.06 263.848C1522.66 265.74 1523.68 267.404 1525 268.863C1525.78 269.707 1526.67 270.436 1527.65 271.052C1530.2 272.648 1533.01 273.286 1535.97 273.149C1537.11 273.104 1538.25 272.784 1539.32 272.442C1541.21 271.827 1542.85 270.755 1544.27 269.388C1545.52 268.179 1546.57 266.789 1547.3 265.193C1547.98 263.756 1548.26 262.206 1548.46 260.656C1548.58 259.835 1548.46 258.991 1548.42 258.171C1548.39 256.734 1547.92 255.412 1547.44 254.09Z" fill="white"/>
<path d="M1579.15 272.807C1577.92 271.872 1576.53 271.211 1575.09 270.664C1573.54 270.071 1571.88 270.026 1570.24 270.003C1569.21 269.98 1568.21 270.276 1567.2 270.481C1566.09 270.732 1565.04 271.279 1564.06 271.849C1562.87 272.556 1561.78 273.377 1560.84 274.426C1559.59 275.816 1558.63 277.389 1558.02 279.145C1557.35 281.014 1557.15 282.952 1557.33 284.913C1557.51 286.737 1558.02 288.447 1558.91 290.042C1559.66 291.365 1560.57 292.55 1561.69 293.599C1562.85 294.693 1564.17 295.468 1565.59 296.13C1567.27 296.927 1569.12 297.11 1570.49 297.178C1572.01 297.224 1573.04 297.019 1574.02 296.813C1575.23 296.563 1576.39 296.038 1577.46 295.423C1578.72 294.716 1579.86 293.827 1580.86 292.733C1582.16 291.342 1583.03 289.723 1583.71 287.991C1584.33 286.463 1584.42 284.844 1584.44 283.226C1584.44 281.037 1583.82 278.985 1582.8 277.07C1581.93 275.429 1580.7 273.97 1579.15 272.807Z" fill="white"/>
<path d="M1618.41 258.489C1617.63 256.78 1616.49 255.321 1615.1 254.067C1613.62 252.722 1611.84 251.878 1609.97 251.217C1608.58 250.738 1607.1 250.647 1605.64 250.67C1603.48 250.715 1601.42 251.331 1599.53 252.357C1597.75 253.314 1596.25 254.659 1595.06 256.324C1594.13 257.623 1593.49 259.082 1593.01 260.587C1592.51 262.137 1592.46 263.733 1592.56 265.329C1592.69 267.335 1593.28 269.205 1594.27 270.96C1594.7 271.758 1595.27 272.51 1595.86 273.194C1597.12 274.653 1598.67 275.748 1600.38 276.637C1602.02 277.48 1603.86 277.754 1605.69 277.891C1606.92 277.982 1608.17 277.754 1609.38 277.48C1611.23 277.07 1612.89 276.181 1614.4 275.041C1616.08 273.787 1617.36 272.123 1618.34 270.276C1619.32 268.407 1619.66 266.355 1619.73 264.257C1619.8 263.254 1619.57 262.274 1619.41 261.294C1619.25 260.336 1618.82 259.401 1618.41 258.489Z" fill="white"/>
<path d="M521.376 255.063C521.353 254.265 521.559 253.49 521.536 252.692C521.467 250.184 521.969 247.722 522.197 245.237C522.448 242.615 522.927 239.994 523.61 237.44C524.203 235.274 524.568 233.04 525.526 230.965C526.118 229.643 526.688 228.275 526.506 226.748C526.483 226.543 526.574 226.337 526.62 226.109C527.167 223.419 528.079 220.843 528.945 218.244C530.313 214.163 532.137 210.356 534.599 206.822C535.374 205.728 536.081 204.588 536.651 203.357C537.517 201.533 538.384 199.732 539.592 198.113C540.595 196.768 541.462 195.332 542.51 194.032C544.539 191.547 546.819 189.381 550.216 188.925C552.017 188.675 553.841 188.469 555.665 188.355C558.173 188.173 560.68 187.899 563.211 187.671C565.4 187.466 567.566 187.307 569.754 187.079C570.894 186.965 571.054 186.577 570.552 185.574C569.572 183.613 570.051 182.086 571.943 181.037C573.014 180.444 574.086 179.874 575.18 179.327C575.568 179.122 575.933 178.894 576.069 178.461C576.571 176.774 577.779 175.634 578.942 174.426C581.723 171.508 584.938 169.684 589.11 169.934C591.093 170.048 592.986 170.664 594.946 170.915C596.383 171.097 597.819 171.622 599.278 171.325C601.786 170.801 604.316 170.459 606.87 170.345C611.315 170.14 614.963 168.156 618.383 165.534C621.278 163.3 623.946 160.815 626.681 158.376C628.984 156.347 631.059 154.158 632.655 151.513C633.772 149.644 634.661 147.706 635.322 145.631C636.553 141.824 637.26 137.903 637.693 133.936C637.944 131.633 639.289 130.06 641.364 129.057C643.507 128.031 645.741 127.484 648.066 127.005C653.059 125.979 658.075 125.295 663.204 125.501C663.615 125.523 664.048 125.409 664.481 125.409C665.781 125.409 667.148 124.908 668.334 125.934C668.448 126.048 668.676 126.048 668.858 126.048C670.409 126.002 671.959 126.253 673.509 126.276C675.447 126.299 677.385 126.481 679.323 126.663C681.808 126.914 684.27 127.279 686.755 127.507C688.807 127.712 690.836 127.963 692.796 128.51C695.19 129.194 697.698 128.898 700.069 129.513C701.665 129.103 703.238 129.582 704.766 129.764C707.068 130.06 709.371 130.379 711.651 130.721C710.83 129.034 710.055 127.347 709.371 125.592C708.732 123.905 707.707 122.674 706.111 121.785C704.264 120.759 702.554 119.527 700.753 118.41C699.978 117.932 699.613 117.225 699.499 116.359C698.929 111.844 698.336 107.33 697.766 102.816C697.675 102.018 697.425 101.334 696.969 100.673C695.054 97.9603 692.454 96.0909 689.422 94.8598C688.123 94.3354 687.484 93.6286 687.416 92.1923C687.302 89.8213 686.983 87.4503 686.778 85.0793C686.709 84.3725 686.504 83.7798 685.866 83.415C683.221 81.8191 681.489 79.4025 679.847 76.8491C677.499 73.2014 675.926 69.1433 673.578 65.4956C671.799 62.7598 670.249 59.8188 668.152 57.3338C666.624 55.51 665.552 53.4809 664.504 51.4063C664.276 50.9503 664.116 50.4715 664.276 49.97C664.413 49.6052 664.572 49.1948 664.96 49.0808C665.461 48.9212 665.621 49.4 665.803 49.7191C667.627 52.8425 669.998 55.5783 672.346 58.3141C673.327 59.454 674.512 60.366 675.766 61.2095C676.746 61.8706 677.088 61.7339 677.795 60.7307C679.345 58.5193 679.961 56.0115 680.121 53.3669C680.394 48.944 679.551 44.7491 677.636 40.7594C676.997 39.4371 676.792 39.3003 675.333 39.6195C673.805 39.9615 672.301 40.2579 670.728 40.3263C667.376 40.4859 664.23 39.6879 661.198 38.3428C659.739 37.7045 658.371 37.6589 656.844 38.0464C653.333 38.9584 649.913 40.0527 646.698 41.717C646.06 42.0362 645.422 42.4237 644.669 41.9906C641.956 40.4859 639.061 40.3263 636.097 41.0103C635.413 41.1698 634.98 41.0102 634.57 40.3947C633.794 39.1635 632.609 38.4796 631.218 38.0693C628.756 37.3397 626.203 37.1573 623.649 36.9977C622.509 36.9293 621.347 36.9749 620.07 36.9749C620.572 36.4278 621.62 36.7926 621.461 35.8806C621.347 35.2195 620.572 35.3563 620.07 35.2195C619.637 35.1055 619.204 35.0599 618.77 34.9687C616.263 34.5355 613.732 34.0796 611.224 33.6464C610.495 33.5324 609.993 33.35 610.039 32.4153C610.107 30.067 609.446 29.2691 607.212 28.6307C605.639 28.1748 604.02 28.1976 602.401 28.3116C596.953 28.6992 592.461 30.865 589.338 35.493C588.768 36.3594 588.563 36.9978 589.224 38.0237C590.957 40.7595 590.273 42.8797 587.377 44.4984C586.488 44.9999 585.599 45.0227 584.687 44.544C583.798 44.0652 582.909 43.632 582.02 43.176C577.483 40.8506 572.786 39.0952 567.611 38.9812C566.562 38.9584 565.833 38.5252 565.172 37.7729C564.009 36.405 563.006 34.8775 562.687 33.122C562.39 31.4577 561.387 30.751 559.997 30.3406C556.736 29.3375 553.431 28.5852 550.011 29.3603C548.78 29.6339 548.05 29.292 547.161 28.3344C544.927 25.8494 542.259 24.1623 538.657 24.9147C538.11 25.0287 537.54 25.0058 537.061 24.641C534.234 22.498 534.12 19.9446 536.628 17.8472C537.381 17.2089 538.224 16.6617 539.068 16.0917C539.706 15.6585 540.094 15.1342 540.162 14.3363C540.39 11.8056 539.752 9.61704 537.791 7.88437C536.97 7.15483 536.947 7.10918 537.768 6.40243C538.863 5.4449 539.501 4.2366 539.752 2.84591C539.98 1.6376 539.729 1.18165 538.612 0.794076C534.69 -0.551022 530.929 -0.231829 527.463 2.09359C526.46 2.77754 525.639 2.9143 524.568 2.41273C522.881 1.63759 521.103 1.38681 519.233 1.34121C516.452 1.27282 513.807 1.70604 511.254 2.75476C509.726 3.37032 508.267 3.32467 506.717 2.84591C501.907 1.38682 497.005 0.839675 491.944 1.29564C488.273 1.61482 484.785 2.54952 481.57 4.1226C479.017 5.37651 476.486 5.92369 473.728 5.71851C473.454 5.69571 473.181 5.71851 472.884 5.71851C471.904 5.67291 471.061 5.94651 470.194 6.44807C465.999 8.79629 461.485 9.25227 456.812 8.45433C453.255 7.83878 450.314 6.01486 447.761 3.48425C446.507 2.23035 446.302 2.25316 444.774 3.21069C441.947 4.96615 439.918 7.4056 438.391 10.301C438.003 11.0305 437.638 11.76 436.886 12.2388C432.167 15.2937 427.379 18.212 421.976 19.9219C420.403 20.4234 419.217 21.2898 418.26 22.5665C415.456 26.3966 413.381 30.523 413.495 35.4247C413.495 35.9946 413.426 36.5418 412.97 36.9522C411.694 38.1149 410.463 39.3004 409.118 40.3719C404.854 43.7916 400.067 46.1854 394.755 47.4621C394.002 47.6445 393.296 47.9409 392.657 48.4197C390.058 50.3575 388.166 52.8654 386.798 55.7607C386.365 56.6955 385.795 57.2426 384.837 57.6074C382.694 58.4281 380.665 59.4996 379.183 61.3007C377.474 63.3525 376.015 65.5868 375.08 68.1174C374.806 68.8469 374.487 69.5537 373.871 70.078C370.93 72.6087 368.035 75.1848 365.504 78.1486C362.746 81.3631 360.192 84.6917 358.277 88.4762C357.593 89.8213 357.388 91.0524 358.209 92.3975C358.437 92.7623 358.574 93.2183 358.665 93.6514C359.554 97.4588 359.873 101.357 359.417 105.233C358.574 112.414 356.271 119.163 352.715 125.478C351.324 127.94 349.865 130.357 348.201 132.659C347.562 133.548 347.539 134.301 348.132 135.235C349.227 136.968 350.184 138.792 351.278 140.525C351.894 141.505 352.031 142.349 351.529 143.466C350.572 145.654 349.796 147.911 348.976 150.146C348.565 151.24 348.611 151.308 349.614 151.833C350.252 152.175 350.914 152.448 351.529 152.859C356.112 155.868 359.691 159.835 362.518 164.486C366.006 170.254 368.103 176.569 369.471 183.112C369.722 184.366 370.224 185.255 371.227 185.962C373.735 187.717 376.197 189.495 378.682 191.274C385.499 196.152 392.338 200.986 399.132 205.887C400.158 206.64 401.138 206.845 402.392 206.526C405.515 205.705 408.639 204.93 411.785 204.291C417.781 203.083 423.845 202.399 429.978 202.627C433.876 202.764 437.752 203.129 441.104 205.431C441.81 205.91 442.517 205.979 443.292 205.568C446.575 203.813 450.086 202.559 453.506 201.122C457.974 199.253 462.671 198.136 467.367 196.973C470.582 196.175 473.865 196.289 477.148 196.289C479.769 196.289 482.209 196.973 484.511 198.159C486.29 199.071 487.977 200.165 489.003 202.012C489.869 203.562 490.827 205.089 491.1 206.89C491.374 208.623 492.468 209.33 494.041 209.581C494.543 209.649 495.044 209.649 495.546 209.672C499.741 209.877 503.844 209.307 507.902 208.258C508.928 207.985 509.954 207.802 510.98 207.552C511.55 207.415 512.097 207.415 512.53 207.848C514.195 209.535 516.133 210.994 517.227 213.206C518.298 215.371 519.028 217.651 518.732 220.091C518.504 222.028 518.116 224.012 516.976 225.608C515.563 227.568 515.449 229.689 515.54 231.923C515.563 232.197 515.54 232.47 515.54 232.766C515.631 235.935 514.788 238.808 512.918 241.361C512.439 242.023 512.348 242.615 512.599 243.368C513.214 245.214 513.807 247.061 514.195 248.976C514.332 249.637 514.582 250.321 515.13 250.709C516.817 251.871 517.911 253.559 519.324 254.972C520.077 255.724 520.783 256.545 521.513 257.343C521.422 256.568 521.376 255.816 521.376 255.063Z" fill="white"/>
<path d="M789.209 162.981C788.753 162.457 788.206 162.297 787.591 162.708C786.086 163.665 784.399 164.258 782.78 164.987C778.927 166.766 774.915 168.134 770.606 167.974C768.44 167.906 766.548 168.293 764.884 169.707C764.633 169.912 764.314 170.049 764.017 170.231C763.174 170.778 762.285 170.915 761.327 170.505C760.05 169.98 758.751 170.003 757.406 170.254C755.514 170.619 753.827 171.417 752.231 172.443C751.182 173.126 750.954 173.104 750.179 172.101C749.153 170.778 747.945 169.615 746.713 168.498C745.026 166.971 743.066 165.991 740.717 166.013C740.353 166.013 739.942 166.127 739.623 165.785C739.532 165.307 739.942 165.101 740.193 164.851C740.763 164.235 741.333 163.642 741.971 163.095C742.655 162.48 742.724 161.818 742.291 161.021C741.835 160.177 741.356 159.379 740.809 158.604C738.483 155.367 735.519 152.768 732.396 150.374C728.566 147.41 724.417 144.948 720.108 142.759C719.834 142.622 719.629 142.417 719.401 142.28C717.6 142.235 715.799 142.349 713.998 142.417C712.904 142.463 711.832 142.098 710.692 142.258C709.621 142.075 708.549 142.44 707.432 142.44C707.044 142.44 706.725 142.645 706.497 142.942C706.133 143.42 705.654 143.625 705.084 143.671C703.511 143.785 701.96 144.195 700.41 144.446C700.023 144.515 699.544 144.56 699.316 144.857C698.541 145.86 697.401 146.019 696.306 146.202C694.369 146.498 692.682 147.433 691.017 148.368C690.402 148.71 689.672 148.983 689.239 149.599C688.487 150.625 687.21 151.058 686.458 152.106C686.366 152.243 686.138 152.266 685.956 152.334C685.728 152.426 685.546 152.608 685.409 152.813C684.611 153.976 683.539 154.933 682.969 156.256C682.833 156.575 682.582 156.803 682.286 156.962C682.012 157.122 681.83 157.373 681.761 157.669C681.579 158.49 681.191 159.151 680.371 159.47C680.165 159.561 680.006 159.698 679.915 159.903C679.481 161.089 678.752 162.046 678.022 163.072C677.11 164.349 676.107 165.557 675.241 166.88C674.329 168.293 673.257 169.661 671.935 170.733C671.821 170.824 671.684 170.938 671.639 171.075C670.955 172.648 669.496 173.605 668.515 174.95C667.9 175.794 666.897 176.204 666.35 177.002C665.118 178.758 663.34 179.989 662.063 181.699C661.266 182.793 660.057 183.545 659.259 184.685C658.94 185.141 658.53 185.62 657.983 185.848C657.413 186.099 657.025 186.486 656.706 186.965C656.364 187.444 655.999 187.945 655.52 188.219C654.608 188.72 654.061 189.587 653.332 190.271C652.967 190.613 652.83 191 652.921 191.502C653.058 192.345 653.309 193.326 652.853 194.01C652.078 195.172 652.602 196.677 651.599 197.794C651.211 198.227 650.983 198.774 650.391 199.048C650.003 199.23 649.638 199.458 649.274 199.641C648.749 199.914 648.658 200.234 649.046 200.735C649.616 201.488 650.208 202.24 650.619 203.083C651.485 204.816 652.716 206.207 654.335 207.255C657.823 209.49 661.174 211.929 664.526 214.323C667.307 216.306 670.02 218.358 673.007 220.045C674.192 220.729 675.355 221.436 676.312 222.462C677.475 223.761 677.68 225.471 676.86 226.999C676.221 228.184 675.286 229.073 674.283 229.917C673.987 230.168 673.599 230.35 673.531 230.783C673.394 231.536 672.801 231.855 672.232 232.22C670.932 233.063 669.746 234.043 668.835 235.32C668.424 235.89 667.968 236.369 667.239 236.62C666.213 236.962 665.369 237.668 664.366 238.124C662.793 238.854 661.266 239.492 659.533 239.492C658.758 239.492 658.051 239.629 657.344 239.971C655.178 241.043 653.127 240.609 651.553 238.991C650.026 237.418 648.499 235.845 647.222 234.066C645.991 232.356 644.44 230.92 643.095 229.301C642.138 228.161 640.702 227.614 639.744 226.497C638.399 224.97 636.598 223.898 635.23 222.371C635.116 222.234 634.956 222.12 634.774 222.074C632.54 221.162 630.693 219.681 628.732 218.313C628.162 217.902 627.57 217.537 626.909 217.287C622.075 215.372 617.63 212.727 613.275 209.923C612.774 209.604 612.295 209.467 611.725 209.581C610.745 209.786 609.764 209.991 608.784 210.174C607.781 210.356 606.755 210.538 605.775 210.858C603.723 211.519 601.716 212.294 599.573 212.681C598.251 212.932 596.883 213.046 595.652 213.502C593.395 214.323 591.047 214.619 588.767 215.28C586.67 215.873 584.549 216.42 582.497 217.15C580.674 217.788 578.827 218.381 577.026 219.088C575.316 219.749 573.743 220.638 572.056 221.322C570.369 222.006 568.887 223.214 567.314 224.195C567.04 224.354 566.903 224.628 566.744 224.879C566.06 225.882 565.604 227.136 564.578 227.774C563.461 228.481 562.868 229.552 562.116 230.51C561.865 230.829 561.637 231.148 561.455 231.49C560.999 232.288 560.383 232.698 559.426 232.562C558.924 232.493 558.559 232.653 558.354 233.177C557.625 235.138 555.983 236.46 554.798 238.102C554.342 238.74 553.749 239.287 553.407 240.017C552.677 241.612 551.515 242.912 550.466 244.303C550.215 244.645 549.873 244.85 549.44 244.804C548.619 244.713 548.14 245.123 547.799 245.83C547.069 247.403 546.134 248.794 544.584 249.683C544.288 249.843 544.06 250.093 543.695 250.139C543.398 250.185 543.193 250.344 543.057 250.618C542.441 251.689 541.939 252.806 541.027 253.718C540.343 254.38 539.728 255.086 538.77 255.246C538.2 255.337 537.95 255.633 537.722 256.112C536.992 257.708 536.126 259.19 534.621 260.193C534.439 260.307 534.279 260.535 534.074 260.489C533.002 260.239 532.706 261.037 532.546 261.766C532.182 263.43 530.312 263.613 529.583 264.867C529.537 264.935 529.355 264.935 529.241 264.935C528.83 264.912 528.534 265.095 528.283 265.368C530.814 268.56 533.253 271.843 535.351 275.377C538.064 279.936 540.48 284.587 541.347 289.899C541.666 291.792 541.666 293.547 539.91 294.846C539.158 295.394 539.158 296.1 539.591 296.921C541.301 300.113 542.418 303.555 543.581 306.975C544.447 309.483 544.63 312.082 544.447 314.704C544.333 316.254 543.763 317.622 542.646 318.739C541.552 319.856 540.457 320.95 539.34 322.022C538.497 322.843 537.813 323.777 537.266 324.826C535.989 327.311 534.963 329.887 534.462 332.646C533.96 335.427 533.595 338.232 533.344 341.059C533.025 344.706 532.706 348.354 532.774 352.025C532.797 352.64 532.911 353.21 533.276 353.757C534.006 354.806 534.644 355.9 535.374 356.972C539.432 362.877 543.17 368.986 546.545 375.302C547.73 377.513 548.688 379.816 549.531 382.164C550.238 384.102 550.512 386.108 550.512 388.205C550.489 391.967 550.42 395.706 551.059 399.468C552.449 407.584 555.482 414.788 561.272 420.716C561.66 421.126 562.025 421.536 562.275 422.038C564.418 426.301 566.744 430.473 568.499 434.919C569.252 436.857 569.981 438.704 571.646 440.231C573.675 442.078 573.675 444.905 571.965 447.025C571.167 448.028 571.03 448.986 571.44 450.103C571.645 450.673 571.805 451.265 572.033 451.835C573.515 455.62 575.932 458.538 579.853 459.974C581.312 460.522 582.817 460.704 584.23 459.997C586.601 458.812 589.132 458.265 591.662 457.603C594.809 456.76 598.023 456.532 601.238 456.486C604.27 456.441 607.302 456.874 610.311 457.489C613.161 458.082 616.034 457.991 618.884 457.307C620.616 456.897 622.235 456.19 623.876 455.483C628.048 453.636 631.696 451.015 635.025 447.982C640.337 443.149 645.033 437.746 648.818 431.59C649.251 430.861 649.844 430.291 650.528 429.789C652.944 428.034 655.338 426.21 657.755 424.455C658.347 424.021 658.849 423.52 659.259 422.927C660.285 421.468 661.197 419.941 661.858 418.276C663.226 414.788 664.457 411.232 662.451 407.538C662.177 407.037 662.177 406.467 662.451 405.92C663.751 403.366 665.666 401.52 668.607 401.109C670.043 400.904 671.434 400.539 672.801 400.083C674.375 399.559 675.811 398.761 677.11 397.644C679.687 395.41 681.009 392.514 681.556 389.277C681.83 387.727 682.377 386.131 682.058 384.512C681.647 382.392 681.67 380.203 681.123 378.106C680.712 376.51 680.598 374.823 679.641 373.364C678.455 371.563 678.547 369.807 679.892 368.166C680.712 367.163 681.716 366.387 682.81 365.704C684.383 364.746 686.002 363.902 687.643 363.104C690.789 361.577 693.183 359.229 694.961 356.288C695.44 355.513 696.01 355.079 696.854 354.829C699.681 354.031 702.462 353.119 705.152 351.865C709.165 349.973 712.949 347.784 715.867 344.387C718.238 341.628 720.222 338.596 719.492 334.607C719.424 334.173 719.47 333.717 719.47 333.284C719.47 330.389 719.47 327.516 719.447 324.621C719.424 322.455 719.515 320.289 719.196 318.146C718.968 316.664 719.082 315.251 720.222 313.951C721.499 312.492 721.339 311.102 720.108 309.574C719.31 308.571 718.375 307.682 717.144 307.203C715.981 306.747 715.32 305.995 715.434 304.673C715.48 304.239 715.389 303.783 715.275 303.35C714.773 301.184 714.066 299.087 712.676 297.286C711.695 296.032 711.764 295.964 712.562 294.664C712.949 294.048 713.268 293.41 713.588 292.772C715.206 289.557 714.728 284.998 711.49 283.105C710.555 282.558 710.327 281.669 710.669 280.643C711.9 276.95 713.086 273.234 714.933 269.814C718.603 263.043 723.368 257.184 729.341 252.305C730.549 251.324 731.758 250.344 732.601 248.999C733.262 247.973 734.06 247.061 734.813 246.104C738.369 241.59 742.405 237.554 747.124 234.249C750.544 231.855 754.214 229.894 758.341 228.982C759.23 228.777 759.959 228.344 760.643 227.728C762.695 225.768 764.587 223.67 766.434 221.527C769.694 217.743 772.817 213.844 775.53 209.649C776.078 208.806 776.648 207.985 777.218 207.164C779.634 203.767 781.595 200.074 783.441 196.358C785.539 192.117 787.18 187.717 788.548 183.18C790.167 177.754 790.988 172.26 790.828 166.606C790.76 165.079 790.076 164.007 789.209 162.981Z" fill="white"/>
<path d="M608.076 170.55C607.574 170.8 607.05 170.732 606.503 170.823C607.118 171.165 607.78 171.006 608.418 171.12C608.555 171.142 608.737 171.051 608.714 170.869C608.692 170.778 608.6 170.664 608.509 170.618C608.372 170.573 608.167 170.504 608.076 170.55Z" fill="white"/>
</svg>
